<?xml version="1.0" encoding="UTF-8"?>
<!DOCTYPE svg PUBLIC "-//W3C//DTD SVG 1.1//EN" "http://www.w3.org/Graphics/SVG/1.1/DTD/svg11.dtd">
<svg xmlns="http://www.w3.org/2000/svg" version="1.1" width="500px" height="500px" style="shape-rendering:geometricPrecision; text-rendering:geometricPrecision; image-rendering:optimizeQuality; fill-rule:evenodd; clip-rule:evenodd" xmlns:xlink="http://www.w3.org/1999/xlink">
<g><path style="opacity:1" fill="#16202d" d="M 180.5,185.5 C 182.681,185.914 185.015,186.081 187.5,186C 195.096,191.564 195.429,197.731 188.5,204.5C 185.7,204.434 182.867,204.434 180,204.5C 178.14,202.64 176.306,200.806 174.5,199C 174.937,196.783 174.937,194.449 174.5,192C 176.027,189.31 178.027,187.143 180.5,185.5 Z"/></g>
<g><path style="opacity:0.004" fill="#000000" d="M 153.5,190.5 C 154.833,191.167 154.833,191.167 153.5,190.5 Z"/></g>
<g><path style="opacity:1" fill="#192433" d="M 165.5,210.5 C 163.318,211.3 161.651,212.8 160.5,215C 158.35,216.411 156.016,217.245 153.5,217.5C 153.769,219.429 153.269,221.095 152,222.5C 146.283,221.449 140.116,222.283 133.5,225C 131.735,228.607 130.402,232.44 129.5,236.5C 129.863,237.183 130.196,237.85 130.5,238.5C 128.069,238.815 125.736,238.815 123.5,238.5C 122.167,235.833 120.833,233.167 119.5,230.5C 120.974,229.564 121.974,228.23 122.5,226.5C 125.592,224.287 128.926,222.621 132.5,221.5C 138.57,220.506 144.403,219.506 150,218.5C 150.536,216.433 150.036,214.599 148.5,213C 148.833,212.667 149.167,212.333 149.5,212C 146.635,211.163 143.802,210.33 141,209.5C 140.667,209.833 140.333,210.167 140,210.5C 140.143,209.135 140.643,207.802 141.5,206.5C 143.787,206.724 145.953,207.391 148,208.5C 148.772,208.355 149.439,208.022 150,207.5C 155.009,214.266 158.842,213.766 161.5,206C 161.361,204.699 160.695,203.866 159.5,203.5C 159.672,202.508 159.338,201.842 158.5,201.5C 157.833,200.5 157.167,199.5 156.5,198.5C 152.091,198.508 148.757,196.508 146.5,192.5C 145.094,193.668 143.928,193.335 143,191.5C 141.026,191.626 138.859,191.792 136.5,192C 134.059,195.487 132.559,195.32 132,191.5C 133.859,190.421 135.359,189.088 136.5,187.5C 142.58,186.861 147.913,188.694 152.5,193C 154.74,193.977 157.073,194.477 159.5,194.5C 159.351,195.552 159.517,196.552 160,197.5C 161.682,199.599 163.348,200.932 165,201.5C 165.498,204.482 165.665,207.482 165.5,210.5 Z"/></g>
<g><path style="opacity:1" fill="#101720" d="M 153.5,191.5 C 154.542,192.791 155.708,192.791 157,191.5C 158.925,193.213 161.092,194.547 163.5,195.5C 165.698,199.419 167.031,203.585 167.5,208C 166.934,208.995 166.267,209.828 165.5,210.5C 165.665,207.482 165.498,204.482 165,201.5C 163.348,200.932 161.682,199.599 160,197.5C 159.517,196.552 159.351,195.552 159.5,194.5C 157.073,194.477 154.74,193.977 152.5,193C 147.913,188.694 142.58,186.861 136.5,187.5C 136.611,186.883 136.944,186.383 137.5,186C 139.5,185.333 141.5,185.333 143.5,186C 147.511,186.69 150.844,188.523 153.5,191.5 Z"/></g>
<g><path style="opacity:0.005" fill="#000000" d="M 158.5,201.5 C 158.489,204.001 157.822,204.168 156.5,202C 157.094,201.536 157.761,201.369 158.5,201.5 Z"/></g>
<g><path style="opacity:1" fill="#141d29" d="M 136.5,187.5 C 135.359,189.088 133.859,190.421 132,191.5C 132.559,195.32 134.059,195.487 136.5,192C 138.859,191.792 141.026,191.626 143,191.5C 143.928,193.335 145.094,193.668 146.5,192.5C 148.757,196.508 152.091,198.508 156.5,198.5C 154.516,198.383 152.85,199.05 151.5,200.5C 149.443,198.731 147.61,196.731 146,194.5C 145.667,194.833 145.333,195.167 145,195.5C 137.951,192.111 134.451,194.111 134.5,201.5C 125.581,192.598 118.581,193.931 113.5,205.5C 113.5,207.167 113.5,208.833 113.5,210.5C 111.5,209.167 109.5,207.833 107.5,206.5C 105.313,207.322 103.647,208.822 102.5,211C 102.833,211.333 103.167,211.667 103.5,212C 102.422,212.674 101.755,213.674 101.5,215C 101.933,216.928 102.6,218.761 103.5,220.5C 103.176,222.569 102.342,222.902 101,221.5C 95.9292,225.891 96.5958,229.224 103,231.5C 103.5,231.167 104,230.833 104.5,230.5C 103.754,229.264 103.421,227.93 103.5,226.5C 106.279,226.842 108.612,228.009 110.5,230C 109.672,230.915 108.672,231.581 107.5,232C 107.833,232.333 108.167,232.667 108.5,233C 107.234,233.309 106.067,233.809 105,234.5C 101.683,233.198 98.3496,231.864 95,230.5C 93.6233,231.036 93.6233,232.036 95,233.5C 99.5473,237.893 104.547,238.56 110,235.5C 111.039,236.244 111.539,237.244 111.5,238.5C 108.287,238.937 105.454,239.603 103,240.5C 100.602,239.144 98.1024,237.977 95.5,237C 94.3783,234.876 92.8783,233.043 91,231.5C 90.4077,228.306 90.5743,225.139 91.5,222C 93.6152,218.55 95.1152,214.383 96,209.5C 98.0073,204.162 101.841,200.996 107.5,200C 109.997,196.337 112.997,193.171 116.5,190.5C 119.066,189.453 121.733,188.786 124.5,188.5C 127.183,189.276 129.683,189.609 132,189.5C 132.333,188.833 132.667,188.167 133,187.5C 133.986,188.171 135.153,188.171 136.5,187.5 Z"/></g>
<g><path style="opacity:1" fill="#151925" d="M 159.5,203.5 C 160.695,203.866 161.361,204.699 161.5,206C 158.842,213.766 155.009,214.266 150,207.5C 149.439,208.022 148.772,208.355 148,208.5C 145.953,207.391 143.787,206.724 141.5,206.5C 141.604,201.502 143.271,200.669 146.5,204C 145.346,204.914 145.513,205.747 147,206.5C 147.667,205.167 148.333,205.167 149,206.5C 151.127,200.574 152.96,200.407 154.5,206C 153.833,206.667 153.167,207.333 152.5,208C 155.044,210.127 157.377,209.627 159.5,206.5C 158.209,205.473 158.209,204.473 159.5,203.5 Z"/></g>
<g><path style="opacity:0.537" fill="#0f151c" d="M 141.5,206.5 C 140.643,207.802 140.143,209.135 140,210.5C 140.333,210.167 140.667,209.833 141,209.5C 143.802,210.33 146.635,211.163 149.5,212C 149.167,212.333 148.833,212.667 148.5,213C 150.036,214.599 150.536,216.433 150,218.5C 144.403,219.506 138.57,220.506 132.5,221.5C 136.176,219.572 140.176,218.238 144.5,217.5C 145.91,217.132 146.91,216.299 147.5,215C 145.408,213.075 142.908,211.908 140,211.5C 138.318,213.554 136.651,213.221 135,210.5C 134.833,210.167 134.667,209.833 134.5,209.5C 136.84,207.651 139.174,206.651 141.5,206.5 Z"/></g>
<g><path style="opacity:0.969" fill="#10151c" d="M 121.5,218.5 C 122.366,216.856 122.866,215.189 123,213.5C 120.199,216.796 117.199,217.129 114,214.5C 114.43,216.127 114.596,217.627 114.5,219C 113.906,219.464 113.239,219.631 112.5,219.5C 112.064,216.636 112.897,214.303 115,212.5C 115.519,213.516 116.353,214.182 117.5,214.5C 120.143,213.024 122.31,211.024 124,208.5C 126.358,210.928 126.524,213.261 124.5,215.5C 124.709,216.086 125.043,216.586 125.5,217C 124.099,217.41 122.766,217.91 121.5,218.5 Z"/></g>
<g><path style="opacity:0.592" fill="#0a0a0a" d="M 286.5,210.5 C 290.936,210.21 295.27,210.71 299.5,212C 300.451,212.718 300.617,213.551 300,214.5C 292.814,220.678 284.648,225.178 275.5,228C 274.056,228.781 272.723,228.614 271.5,227.5C 280.671,224.483 289.004,219.983 296.5,214C 294.863,213.399 293.197,212.899 291.5,212.5C 267.105,215.265 243.772,221.765 221.5,232C 220.167,232.667 218.833,232.667 217.5,232C 227.311,226.505 237.645,222.171 248.5,219C 261.144,215.441 273.811,212.608 286.5,210.5 Z"/></g>
<g><path style="opacity:1" fill="#131a25" d="M 190.5,206.5 C 192.894,208.332 193.894,210.832 193.5,214C 193.316,216.837 192.316,219.337 190.5,221.5C 187.856,223.81 185.523,225.81 183.5,227.5C 184.136,231.324 185.136,235.324 186.5,239.5C 185.389,244.813 184.389,244.646 183.5,239C 181.176,236.031 178.842,233.031 176.5,230C 177.068,228.704 177.068,227.204 176.5,225.5C 176.875,221.789 178.542,218.789 181.5,216.5C 184.919,214.914 187.919,212.748 190.5,210C 189.316,208.855 189.316,207.688 190.5,206.5 Z"/></g>
<g><path style="opacity:0.875" fill="#0e121b" d="M 165.5,210.5 C 163.809,215.671 160.143,218.505 154.5,219C 155.016,222.806 156.016,226.472 157.5,230C 156.667,230.833 155.833,231.667 155,232.5C 154.044,231.106 152.711,230.439 151,230.5C 146.778,231.539 142.611,232.539 138.5,233.5C 137.261,231.993 137.595,230.826 139.5,230C 138.244,229.583 137.577,228.75 137.5,227.5C 134.405,227.626 132.572,229.293 132,232.5C 131.297,234.929 131.463,237.262 132.5,239.5C 131.508,239.672 130.842,239.338 130.5,238.5C 130.196,237.85 129.863,237.183 129.5,236.5C 130.402,232.44 131.735,228.607 133.5,225C 140.116,222.283 146.283,221.449 152,222.5C 153.269,221.095 153.769,219.429 153.5,217.5C 156.016,217.245 158.35,216.411 160.5,215C 161.651,212.8 163.318,211.3 165.5,210.5 Z M 143.5,223.5 C 146.598,223.413 146.932,223.913 144.5,225C 144.833,225.333 145.167,225.667 145.5,226C 144.056,226.781 142.723,226.614 141.5,225.5C 141.846,224.304 142.346,224.304 143,225.5C 143.464,224.906 143.631,224.239 143.5,223.5 Z M 140.5,227.5 C 140.167,227.5 139.833,227.5 139.5,227.5C 139.167,226.167 138.833,226.167 138.5,227.5C 138.167,227.5 137.833,227.5 137.5,227.5C 138.5,223.5 139.5,223.5 140.5,227.5 Z M 151.5,224.5 C 150.828,225.267 149.995,225.934 149,226.5C 148.812,224.939 149.645,224.272 151.5,224.5 Z"/></g>
<g><path style="opacity:0.553" fill="#0f121f" d="M 121.5,218.5 C 119.898,221.534 120.231,224.201 122.5,226.5C 121.974,228.23 120.974,229.564 119.5,230.5C 118.717,232.076 117.55,233.409 116,234.5C 114.959,231.887 113.459,229.554 111.5,227.5C 113.086,224.659 114.92,221.993 117,219.5C 117.383,220.056 117.883,220.389 118.5,220.5C 118.973,219.094 119.973,218.427 121.5,218.5 Z"/></g>
<g><path style="opacity:1" fill="#17212f" d="M 121.5,218.5 C 119.973,218.427 118.973,219.094 118.5,220.5C 117.883,220.389 117.383,220.056 117,219.5C 114.92,221.993 113.086,224.659 111.5,227.5C 113.459,229.554 114.959,231.887 116,234.5C 117.55,233.409 118.717,232.076 119.5,230.5C 120.833,233.167 122.167,235.833 123.5,238.5C 121.77,237.024 120.437,237.358 119.5,239.5C 120.833,240.5 120.833,241.5 119.5,242.5C 120.172,244.16 121.172,245.493 122.5,246.5C 121.122,247.234 119.622,247.901 118,248.5C 118.019,250.107 118.185,251.774 118.5,253.5C 117.662,253.842 117.328,254.508 117.5,255.5C 116.926,253.212 115.926,251.045 114.5,249C 115.634,247.984 115.301,247.317 113.5,247C 113.833,246.667 114.167,246.333 114.5,246C 113.25,243.619 111.583,241.619 109.5,240C 110.416,239.722 111.082,239.222 111.5,238.5C 111.539,237.244 111.039,236.244 110,235.5C 104.547,238.56 99.5473,237.893 95,233.5C 93.6233,232.036 93.6233,231.036 95,230.5C 98.3496,231.864 101.683,233.198 105,234.5C 106.067,233.809 107.234,233.309 108.5,233C 108.167,232.667 107.833,232.333 107.5,232C 108.672,231.581 109.672,230.915 110.5,230C 108.612,228.009 106.279,226.842 103.5,226.5C 102.957,226.44 102.624,226.107 102.5,225.5C 106.202,224.071 109.535,222.071 112.5,219.5C 113.239,219.631 113.906,219.464 114.5,219C 114.596,217.627 114.43,216.127 114,214.5C 117.199,217.129 120.199,216.796 123,213.5C 122.866,215.189 122.366,216.856 121.5,218.5 Z"/></g>
<g><path style="opacity:0.916" fill="#0e131d" d="M 169.5,249.5 C 169.5,248.5 169.5,247.5 169.5,246.5C 165.674,246.203 162.674,244.37 160.5,241C 156.833,240.333 153.167,240.333 149.5,241C 148.667,242.5 147.5,243.667 146,244.5C 145.601,244.272 145.435,243.938 145.5,243.5C 145.939,241.665 147.272,240.165 149.5,239C 153.421,238.797 157.255,238.297 161,237.5C 161.5,238.667 162.333,239.5 163.5,240C 163.167,240.333 162.833,240.667 162.5,241C 163.662,241.827 164.829,242.66 166,243.5C 167.879,241.987 170.046,241.321 172.5,241.5C 172.649,244.607 172.149,247.607 171,250.5C 170.617,249.944 170.117,249.611 169.5,249.5 Z"/></g>
<g><path style="opacity:0.749" fill="#050505" d="M 325.5,255.5 C 323.519,256.105 323.185,257.105 324.5,258.5C 320.774,264.947 317.274,271.614 314,278.5C 312.989,279.337 311.822,279.67 310.5,279.5C 311.968,272.887 314.302,266.554 317.5,260.5C 313.547,259.985 309.547,259.819 305.5,260C 310.223,258.226 315.056,256.726 320,255.5C 328.676,240.64 335.509,224.973 340.5,208.5C 323.104,215.473 308.604,226.473 297,241.5C 291.646,247.484 292.98,250.817 301,251.5C 304.289,251.386 307.456,250.719 310.5,249.5C 311.833,250.167 311.833,250.833 310.5,251.5C 304.893,253.854 299.226,254.354 293.5,253C 290.797,251.18 289.964,248.68 291,245.5C 301.692,229.472 315.525,216.972 332.5,208C 335.738,206.632 339.072,206.299 342.5,207C 343.795,211.617 343.295,216.117 341,220.5C 335.819,232.193 330.652,243.859 325.5,255.5 Z"/></g>
<g><path style="opacity:0.694" fill="#080808" d="M 250.5,222.5 C 251.586,222.62 252.253,223.287 252.5,224.5C 250.365,230.905 248.032,237.238 245.5,243.5C 248.709,244.787 251.875,244.787 255,243.5C 255.75,244.126 256.584,244.626 257.5,245C 252.971,245.908 248.471,246.741 244,247.5C 240.275,256.618 236.275,265.618 232,274.5C 230.759,276.421 229.259,276.754 227.5,275.5C 230.561,265.551 234.561,256.051 239.5,247C 237.423,246.808 235.423,246.308 233.5,245.5C 236.428,244.516 239.428,244.183 242.5,244.5C 244.968,237.097 247.634,229.764 250.5,222.5 Z"/></g>
<g><path style="opacity:0.994" fill="#16202e" d="M 130.5,238.5 C 130.842,239.338 131.508,239.672 132.5,239.5C 133.968,240.779 134.635,242.446 134.5,244.5C 135.5,244.5 136.5,244.5 137.5,244.5C 137.281,243.325 137.614,242.325 138.5,241.5C 139.584,242.665 140.417,243.998 141,245.5C 142,244.167 143,244.167 144,245.5C 144.278,244.584 144.778,243.918 145.5,243.5C 145.435,243.938 145.601,244.272 146,244.5C 147.5,243.667 148.667,242.5 149.5,241C 153.167,240.333 156.833,240.333 160.5,241C 162.674,244.37 165.674,246.203 169.5,246.5C 169.5,247.5 169.5,248.5 169.5,249.5C 166.824,250.506 164.157,251.506 161.5,252.5C 159.383,248.67 157.55,249.004 156,253.5C 155.02,251.941 154.187,250.274 153.5,248.5C 152.482,249.193 151.482,249.859 150.5,250.5C 149.673,249.561 149.006,249.895 148.5,251.5C 148.565,251.938 148.399,252.272 148,252.5C 147.667,251.833 147.333,251.167 147,250.5C 145.333,251.5 144,252.833 143,254.5C 141.245,251.662 138.912,250.995 136,252.5C 134.978,251.646 134.145,250.646 133.5,249.5C 134.5,249.5 135.5,249.5 136.5,249.5C 135.876,247.246 134.543,245.579 132.5,244.5C 131.571,243.311 131.238,241.978 131.5,240.5C 130.178,240.33 129.011,240.663 128,241.5C 128.096,243.381 127.929,245.047 127.5,246.5C 126.432,245.566 125.099,245.232 123.5,245.5C 124.833,243.167 124.833,240.833 123.5,238.5C 125.736,238.815 128.069,238.815 130.5,238.5 Z M 150.5,250.5 C 150.158,251.338 149.492,251.672 148.5,251.5C 149.006,249.895 149.673,249.561 150.5,250.5 Z"/></g>
<g><path style="opacity:0.194" fill="#0a0a0a" d="M 259.5,245.5 C 259.222,243.654 259.889,242.32 261.5,241.5C 262.941,243.833 262.275,245.166 259.5,245.5 Z"/></g>
<g><path style="opacity:0.847" fill="#0a0a0a" d="M 278.5,249.5 C 280.43,248.237 282.097,246.57 283.5,244.5C 285.135,245.33 286.802,245.497 288.5,245C 289.337,246.011 289.67,247.178 289.5,248.5C 288.178,248.67 287.011,248.337 286,247.5C 283.982,249.35 282.149,251.35 280.5,253.5C 277.998,253.379 275.332,253.212 272.5,253C 271.975,252.308 271.308,251.808 270.5,251.5C 269.389,252.611 268.055,253.278 266.5,253.5C 263.974,253.112 261.307,253.112 258.5,253.5C 257,253.547 256,252.881 255.5,251.5C 256.361,249.089 257.694,247.089 259.5,245.5C 260.359,247.106 260.526,248.773 260,250.5C 260.925,249.953 261.758,249.287 262.5,248.5C 265.342,242.143 268.675,236.143 272.5,230.5C 272.833,231 273.167,231.5 273.5,232C 271.829,235.684 270.163,239.351 268.5,243C 269.448,243.483 270.448,243.649 271.5,243.5C 271.343,244.873 271.51,246.207 272,247.5C 274.135,245.722 276.635,245.055 279.5,245.5C 279.567,246.959 279.234,248.292 278.5,249.5 Z M 268.5,246.5 C 268.205,248.423 267.372,250.09 266,251.5C 265.253,249.072 266.086,247.406 268.5,246.5 Z M 278.5,249.5 C 277.686,251.273 276.352,251.773 274.5,251C 275.745,250.209 277.078,249.709 278.5,249.5 Z"/></g>
<g><path style="opacity:0.611" fill="#090909" d="M 324.5,258.5 C 323.185,257.105 323.519,256.105 325.5,255.5C 326.097,256.139 326.93,256.472 328,256.5C 331.865,256.015 335.698,255.348 339.5,254.5C 346.561,239.377 353.895,224.377 361.5,209.5C 362.325,208.614 363.325,208.281 364.5,208.5C 357.585,224.164 350.252,239.664 342.5,255C 355.532,255.173 368.532,255.84 381.5,257C 380.228,258.046 378.728,258.546 377,258.5C 365.184,257.407 353.351,257.24 341.5,258C 335.076,268.667 331.409,280.167 330.5,292.5C 329.744,288.338 329.077,284.171 328.5,280C 331.207,272.711 334.207,265.545 337.5,258.5C 333.266,258.182 328.933,258.182 324.5,258.5 Z"/></g>
<g><path style="opacity:0.553" fill="#0b0b0b" d="M 386.5,229.5 C 388.863,231.083 388.863,232.916 386.5,235C 393.047,236.653 392.714,237.82 385.5,238.5C 383.833,242.5 382.167,246.5 380.5,250.5C 381.365,251.583 382.365,251.749 383.5,251C 385.454,248.235 387.621,245.735 390,243.5C 391.28,243.613 392.113,244.28 392.5,245.5C 391.726,246.711 390.893,246.711 390,245.5C 389.517,246.448 389.351,247.448 389.5,248.5C 391.599,247.769 393.599,247.769 395.5,248.5C 392.581,249.857 391.081,252.19 391,255.5C 388.281,256.444 385.448,256.777 382.5,256.5C 382.5,255.5 382.5,254.5 382.5,253.5C 378.324,254.169 376.991,252.669 378.5,249C 377.5,248.5 376.5,248 375.5,247.5C 373.139,249.194 371.139,251.194 369.5,253.5C 363.4,253.621 357.4,253.455 351.5,253C 349.185,250.524 349.518,248.191 352.5,246C 354.473,245.505 356.473,245.338 358.5,245.5C 358.351,246.552 358.517,247.552 359,248.5C 361.141,245.679 363.975,244.346 367.5,244.5C 367.338,246.527 367.505,248.527 368,250.5C 369.675,248.468 371.342,246.468 373,244.5C 374.333,245.833 375.667,245.833 377,244.5C 377.945,244.905 378.612,245.572 379,246.5C 380.037,243.595 381.204,240.761 382.5,238C 380.905,238.617 379.572,238.284 378.5,237C 382.954,236.378 385.621,233.878 386.5,229.5 Z M 357.5,249.5 C 356.686,251.273 355.352,251.773 353.5,251C 354.745,250.209 356.078,249.709 357.5,249.5 Z M 387.5,252.5 C 388.773,253.077 388.773,253.743 387.5,254.5C 386.537,254.03 386.537,253.363 387.5,252.5 Z"/></g>
<g><path style="opacity:1" fill="#182434" d="M 148.5,251.5 C 149.492,251.672 150.158,251.338 150.5,250.5C 151.482,249.859 152.482,249.193 153.5,248.5C 154.187,250.274 155.02,251.941 156,253.5C 157.55,249.004 159.383,248.67 161.5,252.5C 161.904,253.756 162.571,254.923 163.5,256C 162.965,258.996 162.298,261.829 161.5,264.5C 160.448,264.351 159.448,264.517 158.5,265C 158.833,265.333 159.167,265.667 159.5,266C 157.99,266.85 156.49,267.683 155,268.5C 152.805,267.2 150.472,266.2 148,265.5C 147.517,266.448 147.351,267.448 147.5,268.5C 146.167,268.5 144.833,268.5 143.5,268.5C 143.5,267.833 143.167,267.5 142.5,267.5C 139.687,265.194 136.521,263.527 133,262.5C 132.167,262.833 131.333,263.167 130.5,263.5C 132.283,265.232 134.283,266.732 136.5,268C 134.782,268.346 133.115,268.846 131.5,269.5C 129.729,268.965 129.396,268.131 130.5,267C 128.316,266.133 126.149,265.299 124,264.5C 122.11,264.785 120.777,265.785 120,267.5C 119.333,264.833 119.333,262.167 120,259.5C 121.726,260.576 123.559,260.743 125.5,260C 124.24,258.887 123.073,258.72 122,259.5C 121.303,257.416 120.136,255.749 118.5,254.5C 118.5,254.167 118.5,253.833 118.5,253.5C 118.185,251.774 118.019,250.107 118,248.5C 119.622,247.901 121.122,247.234 122.5,246.5C 123.973,247.071 125.64,247.071 127.5,246.5C 127.929,245.047 128.096,243.381 128,241.5C 129.011,240.663 130.178,240.33 131.5,240.5C 131.238,241.978 131.571,243.311 132.5,244.5C 134.543,245.579 135.876,247.246 136.5,249.5C 135.5,249.5 134.5,249.5 133.5,249.5C 134.145,250.646 134.978,251.646 136,252.5C 138.912,250.995 141.245,251.662 143,254.5C 144,252.833 145.333,251.5 147,250.5C 147.333,251.167 147.667,251.833 148,252.5C 148.399,252.272 148.565,251.938 148.5,251.5 Z M 150.5,250.5 C 150.158,251.338 149.492,251.672 148.5,251.5C 149.006,249.895 149.673,249.561 150.5,250.5 Z"/></g>
<g><path style="opacity:1" fill="#161f2e" d="M 194.5,260.5 C 191.769,262.071 189.935,264.405 189,267.5C 188.329,268.252 187.496,268.586 186.5,268.5C 185.12,266.281 185.454,264.281 187.5,262.5C 185.971,261.237 184.305,260.237 182.5,259.5C 181.833,259.5 181.5,259.833 181.5,260.5C 180.711,260.217 180.044,259.717 179.5,259C 181.065,257.129 181.731,255.296 181.5,253.5C 178.828,255.673 176.494,258.173 174.5,261C 173.563,261.692 172.897,261.525 172.5,260.5C 173.661,258.097 175.661,255.764 178.5,253.5C 179.002,252.284 179.335,251.117 179.5,250C 180.944,249.219 182.277,249.386 183.5,250.5C 184.33,252.135 184.497,253.802 184,255.5C 185.011,254.663 186.178,254.33 187.5,254.5C 187.331,252.088 187.997,249.921 189.5,248C 187.859,246.354 188.193,245.354 190.5,245C 190.167,244.667 189.833,244.333 189.5,244C 191.259,242.992 192.426,241.492 193,239.5C 193.333,240.167 193.667,240.833 194,241.5C 195.049,239.893 196.549,239.227 198.5,239.5C 198.955,246.888 197.622,253.888 194.5,260.5 Z"/></g>
<g><path style="opacity:0.004" fill="#000000" d="M 116.5,262.5 C 117.833,263.167 117.833,263.167 116.5,262.5 Z"/></g>
<g><path style="opacity:1" fill="#182435" d="M 181.5,260.5 C 182.167,260.5 182.5,260.167 182.5,259.5C 184.305,260.237 185.971,261.237 187.5,262.5C 185.454,264.281 185.12,266.281 186.5,268.5C 183.473,270.529 181.14,273.196 179.5,276.5C 180.768,278.047 182.435,279.047 184.5,279.5C 185.833,280.5 185.833,281.5 184.5,282.5C 180.134,281.492 175.8,280.325 171.5,279C 170.244,278.583 169.577,277.75 169.5,276.5C 169.789,272.894 169.456,269.394 168.5,266C 169.488,263.833 170.821,262 172.5,260.5C 172.897,261.525 173.563,261.692 174.5,261C 176.494,258.173 178.828,255.673 181.5,253.5C 181.731,255.296 181.065,257.129 179.5,259C 180.044,259.717 180.711,260.217 181.5,260.5 Z"/></g>
<g><path style="opacity:0.996" fill="#121826" d="M 118.5,254.5 C 120.136,255.749 121.303,257.416 122,259.5C 123.073,258.72 124.24,258.887 125.5,260C 123.559,260.743 121.726,260.576 120,259.5C 119.333,262.167 119.333,264.833 120,267.5C 120.777,265.785 122.11,264.785 124,264.5C 126.149,265.299 128.316,266.133 130.5,267C 129.396,268.131 129.729,268.965 131.5,269.5C 133.115,268.846 134.782,268.346 136.5,268C 134.283,266.732 132.283,265.232 130.5,263.5C 131.333,263.167 132.167,262.833 133,262.5C 136.521,263.527 139.687,265.194 142.5,267.5C 142.5,267.833 142.5,268.167 142.5,268.5C 141.325,268.281 140.325,268.614 139.5,269.5C 141.539,272.148 142.206,274.982 141.5,278C 138.805,278.254 136.305,278.421 134,278.5C 132.272,277.648 132.105,276.648 133.5,275.5C 133.435,275.062 133.601,274.728 134,274.5C 135.91,275.206 137.91,276.206 140,277.5C 140.667,275.833 140.667,274.167 140,272.5C 139.692,273.308 139.192,273.975 138.5,274.5C 138.436,273.635 138.103,272.635 137.5,271.5C 136.743,270.227 136.077,270.227 135.5,271.5C 134.883,271.389 134.383,271.056 134,270.5C 132.373,271.532 131.207,272.866 130.5,274.5C 128.436,274.687 126.436,275.187 124.5,276C 126.779,276.473 128.779,277.473 130.5,279C 132.833,279.333 135.167,279.667 137.5,280C 136.167,280.667 136.167,281.333 137.5,282C 134.195,285.464 131.528,289.297 129.5,293.5C 129.259,289.118 130.925,285.285 134.5,282C 129.362,279.84 124.195,277.674 119,275.5C 115.689,277.903 112.189,279.903 108.5,281.5C 105.995,281.98 103.662,282.98 101.5,284.5C 100.081,283.995 99.4148,282.995 99.5,281.5C 102.131,279.046 104.964,276.713 108,274.5C 108.333,274.833 108.667,275.167 109,275.5C 112.011,273.156 114.677,270.489 117,267.5C 117.333,268.167 117.667,268.833 118,269.5C 118.416,264.572 118.25,259.906 117.5,255.5C 118.167,255.5 118.5,255.167 118.5,254.5 Z M 135.5,271.5 C 136.077,270.227 136.743,270.227 137.5,271.5C 138.103,272.635 138.436,273.635 138.5,274.5C 139.192,273.975 139.692,273.308 140,272.5C 140.667,274.167 140.667,275.833 140,277.5C 137.91,276.206 135.91,275.206 134,274.5C 133.601,274.728 133.435,275.062 133.5,275.5C 132.778,275.082 132.278,274.416 132,273.5C 131.617,274.056 131.117,274.389 130.5,274.5C 131.207,272.866 132.373,271.532 134,270.5C 134.383,271.056 134.883,271.389 135.5,271.5 Z"/></g>
<g><path style="opacity:0.8" fill="#0e131f" d="M 194.5,260.5 C 192.996,264.839 190.496,268.506 187,271.5C 186.667,271.167 186.333,270.833 186,270.5C 185.517,271.448 185.351,272.448 185.5,273.5C 183.641,273.461 182.308,274.294 181.5,276C 183.248,276.08 184.915,276.913 186.5,278.5C 187.466,280.396 187.799,282.396 187.5,284.5C 185.801,284.34 184.134,284.506 182.5,285C 183.167,285.667 183.833,286.333 184.5,287C 182.955,288.94 180.955,290.106 178.5,290.5C 175.314,289.076 172.314,287.409 169.5,285.5C 173.176,285.617 176.343,286.95 179,289.5C 181.167,288 181,286.833 178.5,286C 179.5,285.667 180.5,285.333 181.5,285C 180.906,284.536 180.239,284.369 179.5,284.5C 179.5,283.833 179.167,283.5 178.5,283.5C 177.317,283.844 176.484,283.178 176,281.5C 174.249,282.174 172.583,282.507 171,282.5C 169.055,280.819 167.055,280.152 165,280.5C 163.287,278.924 161.787,277.257 160.5,275.5C 162.416,275.092 164.249,275.759 166,277.5C 167.138,277.011 168.305,276.678 169.5,276.5C 169.577,277.75 170.244,278.583 171.5,279C 175.8,280.325 180.134,281.492 184.5,282.5C 185.833,281.5 185.833,280.5 184.5,279.5C 182.435,279.047 180.768,278.047 179.5,276.5C 181.14,273.196 183.473,270.529 186.5,268.5C 187.496,268.586 188.329,268.252 189,267.5C 189.935,264.405 191.769,262.071 194.5,260.5 Z"/></g>
<g><path style="opacity:0.502" fill="#050505" d="M 298.5,279.5 C 302.403,280.462 302.403,281.629 298.5,283C 299.308,283.308 299.975,283.808 300.5,284.5C 298.777,286.868 298.11,289.534 298.5,292.5C 297.5,292.5 296.5,292.5 295.5,292.5C 295.726,289.751 295.393,287.084 294.5,284.5C 295.16,282.185 296.493,280.519 298.5,279.5 Z"/></g>
<g><path style="opacity:0.615" fill="#050505" d="M 226.5,280.5 C 229.572,280.183 232.572,280.516 235.5,281.5C 234.675,282.386 233.675,282.719 232.5,282.5C 232.5,285.833 232.5,289.167 232.5,292.5C 231.5,292.5 230.5,292.5 229.5,292.5C 229.5,289.167 229.5,285.833 229.5,282.5C 227.821,282.715 226.821,282.048 226.5,280.5 Z"/></g>
<g><path style="opacity:0.264" fill="#0a0a0a" d="M 378.5,280.5 C 379.5,280.5 380.5,280.5 381.5,280.5C 381.5,284.5 381.5,288.5 381.5,292.5C 380.5,292.5 379.5,292.5 378.5,292.5C 378.5,288.5 378.5,284.5 378.5,280.5 Z"/></g>
<g><path style="opacity:0.985" fill="#161d2e" d="M 161.5,264.5 C 160.364,267.131 158.364,268.964 155.5,270C 155.982,271.008 156.148,272.175 156,273.5C 156.333,273.167 156.667,272.833 157,272.5C 158.145,273.636 159.312,274.636 160.5,275.5C 161.787,277.257 163.287,278.924 165,280.5C 167.055,280.152 169.055,280.819 171,282.5C 172.583,282.507 174.249,282.174 176,281.5C 176.484,283.178 177.317,283.844 178.5,283.5C 179.167,283.5 179.5,283.833 179.5,284.5C 180.239,284.369 180.906,284.536 181.5,285C 180.5,285.333 179.5,285.667 178.5,286C 181,286.833 181.167,288 179,289.5C 176.343,286.95 173.176,285.617 169.5,285.5C 168.883,285.611 168.383,285.944 168,286.5C 166.333,285.167 164.667,283.833 163,282.5C 162.026,284.878 161.359,284.544 161,281.5C 160.259,282.641 159.425,282.641 158.5,281.5C 158.167,282 157.833,282.5 157.5,283C 158.429,284.077 159.096,285.244 159.5,286.5C 159.297,288.39 159.963,289.89 161.5,291C 158.629,291.078 155.795,290.578 153,289.5C 144.684,279.6 138.517,280.6 134.5,292.5C 134.5,293.833 134.5,295.167 134.5,296.5C 133.762,300.353 133.262,304.02 133,307.5C 132.333,306.833 131.667,306.167 131,305.5C 130.689,301.91 129.856,298.577 128.5,295.5C 128.5,295.167 128.5,294.833 128.5,294.5C 129.167,294.5 129.5,294.167 129.5,293.5C 131.528,289.297 134.195,285.464 137.5,282C 136.167,281.333 136.167,280.667 137.5,280C 135.167,279.667 132.833,279.333 130.5,279C 128.779,277.473 126.779,276.473 124.5,276C 126.436,275.187 128.436,274.687 130.5,274.5C 131.117,274.389 131.617,274.056 132,273.5C 132.278,274.416 132.778,275.082 133.5,275.5C 132.105,276.648 132.272,277.648 134,278.5C 136.305,278.421 138.805,278.254 141.5,278C 142.206,274.982 141.539,272.148 139.5,269.5C 140.325,268.614 141.325,268.281 142.5,268.5C 142.833,268.5 143.167,268.5 143.5,268.5C 144.833,268.5 146.167,268.5 147.5,268.5C 147.351,267.448 147.517,266.448 148,265.5C 150.472,266.2 152.805,267.2 155,268.5C 156.49,267.683 157.99,266.85 159.5,266C 159.167,265.667 158.833,265.333 158.5,265C 159.448,264.517 160.448,264.351 161.5,264.5 Z M 154.5,280.5 C 156.337,280.639 156.67,281.306 155.5,282.5C 154.702,282.043 154.369,281.376 154.5,280.5 Z M 154.5,280.5 C 152.663,280.361 152.33,279.694 153.5,278.5C 154.298,278.957 154.631,279.624 154.5,280.5 Z M 147.5,270.5 C 148.239,270.369 148.906,270.536 149.5,271C 148.748,271.671 148.414,272.504 148.5,273.5C 146.204,273.196 145.871,272.196 147.5,270.5 Z"/></g>
<g><path style="opacity:0.734" fill="#060605" d="M 324.5,281.5 C 326.078,282.066 327.412,283.066 328.5,284.5C 327.511,285.468 326.844,286.635 326.5,288C 327.378,289.8 328.045,291.633 328.5,293.5C 326.61,293.703 325.11,293.037 324,291.5C 323.713,289.109 323.213,286.776 322.5,284.5C 323.193,283.482 323.859,282.482 324.5,281.5 Z"/></g>
<g><path style="opacity:0.532" fill="#060606" d="M 236.5,280.5 C 238.048,280.821 238.715,281.821 238.5,283.5C 240.288,283.215 241.955,283.548 243.5,284.5C 244.393,287.084 244.726,289.751 244.5,292.5C 243.5,292.5 242.5,292.5 241.5,292.5C 240.938,283.43 239.605,283.43 237.5,292.5C 236.509,288.555 236.176,284.555 236.5,280.5 Z"/></g>
<g><path style="opacity:0.709" fill="#0f0f0e" d="M 333.5,283.5 C 341.23,282.143 343.563,285.143 340.5,292.5C 338.5,283.167 336.5,283.167 334.5,292.5C 333.516,289.572 333.183,286.572 333.5,283.5 Z"/></g>
<g><path style="opacity:0.38" fill="#0b0b0b" d="M 369.5,286.5 C 368.262,288.214 367.595,290.214 367.5,292.5C 364.234,292.567 362.734,290.901 363,287.5C 362.846,290.525 361.346,292.191 358.5,292.5C 358.145,289.933 357.479,287.433 356.5,285C 356.85,283.743 357.517,283.409 358.5,284C 359.227,285.399 359.727,286.899 360,288.5C 360.154,285.475 361.654,283.809 364.5,283.5C 365.614,288.629 366.281,288.629 366.5,283.5C 367.5,283.5 368.5,283.5 369.5,283.5C 369.5,284.5 369.5,285.5 369.5,286.5 Z"/></g>
<g><path style="opacity:0.435" fill="#090f18" d="M 99.5,281.5 C 99.4148,282.995 100.081,283.995 101.5,284.5C 103.662,282.98 105.995,281.98 108.5,281.5C 104.473,286.569 100.14,287.069 95.5,283C 96.6667,282.5 97.5,281.667 98,280.5C 98.3826,281.056 98.8826,281.389 99.5,281.5 Z"/></g>
<g><path style="opacity:0.777" fill="#090909" d="M 275.5,281.5 C 277.213,282.305 278.879,283.305 280.5,284.5C 279.675,285.386 278.675,285.719 277.5,285.5C 277.5,287.167 277.5,288.833 277.5,290.5C 280.957,290.667 281.29,291.667 278.5,293.5C 275.894,291.582 274.894,288.916 275.5,285.5C 274.178,285.33 273.011,285.663 272,286.5C 271.167,288.5 270.333,290.5 269.5,292.5C 268.167,289.5 268.167,286.5 269.5,283.5C 270.086,283.709 270.586,284.043 271,284.5C 273.026,284.085 274.526,283.085 275.5,281.5 Z"/></g>
<g><path style="opacity:0.635" fill="#0a0a0a" d="M 313.5,289.5 C 307.676,289.347 307.343,290.013 312.5,291.5C 310.824,293.921 308.824,294.088 306.5,292C 305.398,289.599 305.231,287.099 306,284.5C 311.019,282.35 313.519,284.016 313.5,289.5 Z"/></g>
<g><path style="opacity:0.957" fill="#0e131e" d="M 159.5,286.5 C 160.683,287.504 162.016,288.338 163.5,289C 163.034,290.299 163.034,291.799 163.5,293.5C 160.455,293.492 157.455,293.159 154.5,292.5C 154.833,296.323 153.166,297.823 149.5,297C 147.012,293.733 148.012,291.733 152.5,291C 149.527,289.69 147.193,287.69 145.5,285C 143.613,284.22 141.946,284.387 140.5,285.5C 139.67,286.994 138.67,288.66 137.5,290.5C 140.997,291.173 142.163,293.173 141,296.5C 139.301,297.406 137.467,297.739 135.5,297.5C 136.095,300.654 136.095,303.654 135.5,306.5C 140.376,305.404 142.043,307.071 140.5,311.5C 139.833,311.833 139.167,312.167 138.5,312.5C 136.131,310.697 133.631,310.03 131,310.5C 130.346,307.992 129.179,305.826 127.5,304C 128.133,301.123 128.467,298.289 128.5,295.5C 129.856,298.577 130.689,301.91 131,305.5C 131.667,306.167 132.333,306.833 133,307.5C 133.262,304.02 133.762,300.353 134.5,296.5C 135.833,295.167 135.833,293.833 134.5,292.5C 138.517,280.6 144.684,279.6 153,289.5C 155.795,290.578 158.629,291.078 161.5,291C 159.963,289.89 159.297,288.39 159.5,286.5 Z"/></g>
<g><path style="opacity:0.004" fill="#000000" d="M 140.5,285.5 C 141.833,286.167 141.833,286.167 140.5,285.5 Z"/></g>
<g><path style="opacity:0.621" fill="#0c0c0a" d="M 369.5,286.5 C 371.008,283.75 373.341,282.916 376.5,284C 377.406,285.699 377.739,287.533 377.5,289.5C 370.959,289.538 370.959,290.204 377.5,291.5C 374.738,294.195 372.238,293.862 370,290.5C 369.51,289.207 369.343,287.873 369.5,286.5 Z"/></g>
<g><path style="opacity:0.701" fill="#141414" d="M 383.5,280.5 C 384.794,282.048 385.461,284.048 385.5,286.5C 385.167,288.5 384.833,290.5 384.5,292.5C 383.509,288.555 383.176,284.555 383.5,280.5 Z"/></g>
<g><path style="opacity:0.68" fill="#0d0d0d" d="M 313.5,289.5 C 315.147,287.879 317.147,286.713 319.5,286C 318.216,285.316 317.049,285.483 316,286.5C 314.513,285.747 314.346,284.914 315.5,284C 317.167,283.333 318.833,283.333 320.5,284C 321.444,286.719 321.777,289.552 321.5,292.5C 317.548,294.63 314.881,293.63 313.5,289.5 Z M 318.5,288.5 C 319.043,288.56 319.376,288.893 319.5,289.5C 318.635,290.583 317.635,290.749 316.5,290C 317.416,289.722 318.082,289.222 318.5,288.5 Z"/></g>
<g><path style="opacity:0.588" fill="#070707" d="M 260.5,283.5 C 262.5,283.5 264.5,283.5 266.5,283.5C 267.159,286.455 267.492,289.455 267.5,292.5C 265.061,293.053 262.727,293.053 260.5,292.5C 259.386,291.277 259.219,289.944 260,288.5C 261.419,287.54 262.919,286.707 264.5,286C 263.216,285.316 262.049,285.483 261,286.5C 260.517,285.552 260.351,284.552 260.5,283.5 Z M 263.5,288.5 C 264.043,288.56 264.376,288.893 264.5,289.5C 263.635,290.583 262.635,290.749 261.5,290C 262.416,289.722 263.082,289.222 263.5,288.5 Z"/></g>
<g><path style="opacity:0.689" fill="#070706" d="M 344.5,283.5 C 346.833,283.5 349.167,283.5 351.5,283.5C 351.979,287.911 351.312,292.078 349.5,296C 347.421,296.808 345.421,296.641 343.5,295.5C 345.167,294.833 346.833,294.167 348.5,293.5C 342.405,292.61 341.072,289.276 344.5,283.5 Z M 345.5,285.5 C 348.084,286.048 349.084,287.715 348.5,290.5C 347.5,290.5 346.5,290.5 345.5,290.5C 345.5,288.833 345.5,287.167 345.5,285.5 Z"/></g>
<g><path style="opacity:0.781" fill="#070707" d="M 247.5,283.5 C 252.161,282.832 254.161,284.832 253.5,289.5C 246.959,289.538 246.959,290.204 253.5,291.5C 251.344,293.938 249.011,294.105 246.5,292C 245.041,288.929 245.374,286.096 247.5,283.5 Z"/></g>
<g><path style="opacity:0.875" fill="#060606" d="M 287.5,283.5 C 292.85,282.863 295.017,285.197 294,290.5C 291.718,294.041 289.051,294.374 286,291.5C 285.109,288.502 285.609,285.836 287.5,283.5 Z M 288.5,285.5 C 291.084,286.048 292.084,287.715 291.5,290.5C 287.67,290.504 286.67,288.838 288.5,285.5 Z"/></g>
<g><path style="opacity:0.004" fill="#000000" d="M 128.5,294.5 C 127.833,293.167 127.833,293.167 128.5,294.5 Z"/></g>
<g><path style="opacity:0.91" fill="#0c101a" d="M 149.5,306.5 C 154.587,306.284 155.587,308.118 152.5,312C 148.537,312.118 147.537,310.284 149.5,306.5 Z"/></g>
</svg>
