<?xml version="1.0" encoding="UTF-8"?>
<!DOCTYPE svg PUBLIC "-//W3C//DTD SVG 1.1//EN" "http://www.w3.org/Graphics/SVG/1.1/DTD/svg11.dtd">
<svg xmlns="http://www.w3.org/2000/svg" version="1.1" width="500px" height="500px" style="shape-rendering:geometricPrecision; text-rendering:geometricPrecision; image-rendering:optimizeQuality; fill-rule:evenodd; clip-rule:evenodd" xmlns:xlink="http://www.w3.org/1999/xlink">
<g><path style="opacity:1" fill="#fefefe" d="M -0.5,-0.5 C 166.167,-0.5 332.833,-0.5 499.5,-0.5C 499.5,166.167 499.5,332.833 499.5,499.5C 332.833,499.5 166.167,499.5 -0.5,499.5C -0.5,332.833 -0.5,166.167 -0.5,-0.5 Z"/></g>
<g><path style="opacity:1" fill="#1e2a38" d="M 181.5,186.5 C 189.523,186.683 193.023,190.683 192,198.5C 189.459,203.069 185.625,204.569 180.5,203C 173.644,197.1 173.977,191.6 181.5,186.5 Z"/></g>
<g><path style="opacity:1" fill="#1b1b1b" d="M 342.5,254.5 C 341.596,255.209 341.263,256.209 341.5,257.5C 337.168,265.504 333.335,273.837 330,282.5C 329.308,281.975 328.808,281.308 328.5,280.5C 331.979,273.044 335.312,265.544 338.5,258C 333.5,257.333 328.5,257.333 323.5,258C 320.405,265.323 316.572,272.157 312,278.5C 311.5,278.167 311,277.833 310.5,277.5C 313.461,271.25 316.128,264.916 318.5,258.5C 314.473,259.209 310.473,259.709 306.5,260C 311.366,258.462 316.199,256.962 321,255.5C 329.558,240.652 336.058,224.985 340.5,208.5C 337.206,208.259 334.206,209.092 331.5,211C 318.143,219.354 306.31,229.521 296,241.5C 293.924,244.217 293.257,247.217 294,250.5C 294.671,251.252 295.504,251.586 296.5,251.5C 298.167,252.167 299.833,252.833 301.5,253.5C 293.652,255.037 290.485,252.037 292,244.5C 301.583,231.582 313.083,220.748 326.5,212C 330.623,209.603 334.956,207.77 339.5,206.5C 343.226,206.798 344.393,208.798 343,212.5C 337.384,227.066 331.217,241.399 324.5,255.5C 329.5,256.833 334.5,256.833 339.5,255.5C 346.728,240.044 354.228,224.711 362,209.5C 362.893,208.289 363.726,208.289 364.5,209.5C 356.883,224.399 349.55,239.399 342.5,254.5 Z"/></g>
<g><path style="opacity:1" fill="#393939" d="M 280.5,211.5 C 286.509,211.334 292.509,211.501 298.5,212C 298.957,212.414 299.291,212.914 299.5,213.5C 297.644,216.19 295.311,218.356 292.5,220C 286.18,223.66 279.514,226.493 272.5,228.5C 271.304,228.154 271.304,227.654 272.5,227C 282.05,224.561 290.384,220.061 297.5,213.5C 290.827,212.444 284.161,212.61 277.5,214C 257.026,217.828 237.36,223.828 218.5,232C 227.339,226.916 236.672,222.916 246.5,220C 257.883,216.821 269.216,213.988 280.5,211.5 Z"/></g>
<g><path style="opacity:1" fill="#242f3e" d="M 191.5,208.5 C 192.638,211.304 192.805,214.304 192,217.5C 189.043,220.491 186.043,223.491 183,226.5C 182.821,231.071 183.488,235.405 185,239.5C 182.667,235.833 180.333,232.167 178,228.5C 177.289,224.412 178.456,220.912 181.5,218C 186.674,216.657 190.008,213.49 191.5,208.5 Z"/></g>
<g><path style="opacity:1" fill="#1e2a38" d="M 135.5,187.5 C 142.242,186.228 147.909,188.062 152.5,193C 164.321,194.446 168.154,200.946 164,212.5C 161.681,215.773 158.514,217.44 154.5,217.5C 154.5,219.167 154.5,220.833 154.5,222.5C 147.156,221.768 140.156,222.934 133.5,226C 130.368,231.259 129.868,236.759 132,242.5C 132.414,242.043 132.914,241.709 133.5,241.5C 138.02,253.672 145.353,255.672 155.5,247.5C 160.838,250.983 163.005,255.983 162,262.5C 157.839,269.33 152.005,271.164 144.5,268C 136.5,264.333 128.5,260.667 120.5,257C 117.1,251.032 114.1,244.866 111.5,238.5C 107.589,238.308 103.589,238.141 99.5,238C 90.5864,232.02 89.4198,224.854 96,216.5C 96.2093,207.455 100.709,201.788 109.5,199.5C 114.7,190.595 122.367,187.428 132.5,190C 133.942,189.623 134.942,188.79 135.5,187.5 Z"/></g>
<g><path style="opacity:1" fill="#f7f7f7" d="M 119.5,229.5 C 118.668,228.671 119.001,227.838 120.5,227C 119.711,223.903 118.544,223.736 117,226.5C 117.355,225.041 117.189,223.707 116.5,222.5C 119.021,220.299 121.521,217.966 124,215.5C 124.667,213.5 124.667,211.5 124,209.5C 122.542,214.478 119.376,216.145 114.5,214.5C 113.854,220.647 110.521,224.481 104.5,226C 106.167,227.167 107.833,228.333 109.5,229.5C 105.115,233.665 100.949,233.332 97,228.5C 95.2161,222.156 97.3827,219.656 103.5,221C 98.5886,213.966 100.089,208.8 108,205.5C 110.151,205.643 111.818,206.643 113,208.5C 113.075,198.755 117.908,194.255 127.5,195C 130.211,196.261 132.378,198.094 134,200.5C 134.79,192.564 138.957,190.398 146.5,194C 148.293,195.78 149.96,197.613 151.5,199.5C 154.964,196.699 157.797,197.366 160,201.5C 161.887,208.777 159.387,211.443 152.5,209.5C 154.516,203.205 153.516,202.372 149.5,207C 148.207,207.49 146.873,207.657 145.5,207.5C 145.509,205.692 145.009,204.025 144,202.5C 142.73,206.77 139.896,209.27 135.5,210C 139.7,211.367 144.033,211.867 148.5,211.5C 148.993,213.806 149.326,216.139 149.5,218.5C 138.159,218.613 128.159,222.279 119.5,229.5 Z"/></g>
<g><path style="opacity:1" fill="#95979a" d="M 116.5,222.5 C 117.189,223.707 117.355,225.041 117,226.5C 118.544,223.736 119.711,223.903 120.5,227C 119.001,227.838 118.668,228.671 119.5,229.5C 118.207,231.296 116.707,232.963 115,234.5C 113.833,232.167 112.667,229.833 111.5,227.5C 112.954,225.563 114.621,223.897 116.5,222.5 Z"/></g>
<g><path style="opacity:1" fill="#2d3543" d="M 142.5,227.5 C 144.5,227.5 146.5,227.5 148.5,227.5C 148.67,228.822 148.337,229.989 147.5,231C 144.439,231.535 141.439,231.868 138.5,232C 139.699,230.306 141.032,228.806 142.5,227.5 Z"/></g>
<g><path style="opacity:1" fill="#2d3540" d="M 153.5,227.5 C 155.344,228.204 155.844,229.537 155,231.5C 153.812,230.437 153.312,229.103 153.5,227.5 Z"/></g>
<g><path style="opacity:1" fill="#eeefef" d="M 119.5,237.5 C 123.759,237.102 125.592,239.102 125,243.5C 127.316,244.522 127.816,246.022 126.5,248C 122.909,248.45 120.409,246.95 119,243.5C 118.322,241.402 118.489,239.402 119.5,237.5 Z"/></g>
<g><path style="opacity:1" fill="#1e1e1e" d="M 234.5,259.5 C 235.428,255.638 236.928,251.971 239,248.5C 239.667,247.167 240.333,247.167 241,248.5C 241.464,247.906 241.631,247.239 241.5,246.5C 241.833,245.833 242.167,245.167 242.5,244.5C 245.041,237.375 247.875,230.375 251,223.5C 249.963,230.447 247.796,237.113 244.5,243.5C 248.459,244.327 252.459,244.827 256.5,245C 252.833,245.333 249.167,245.667 245.5,246C 244.584,246.374 243.75,246.874 243,247.5C 239.236,256.86 235.069,266.027 230.5,275C 229.517,275.591 228.85,275.257 228.5,274C 229.842,268.783 231.842,263.95 234.5,259.5 Z"/></g>
<g><path style="opacity:1" fill="#464646" d="M 260.5,241.5 C 263.012,242.216 263.012,243.216 260.5,244.5C 259.913,243.767 259.913,242.767 260.5,241.5 Z"/></g>
<g><path style="opacity:1" fill="#1e1e1e" d="M 380.5,251.5 C 381.167,252.167 381.833,252.833 382.5,253.5C 378.932,253.241 377.599,251.241 378.5,247.5C 380.403,244.47 381.737,241.137 382.5,237.5C 381.448,237.649 380.448,237.483 379.5,237C 380.833,236.667 382.167,236.333 383.5,236C 386.99,228.63 387.99,228.797 386.5,236.5C 387.873,236.343 389.207,236.51 390.5,237C 388.527,237.495 386.527,237.662 384.5,237.5C 382.962,242.114 381.628,246.781 380.5,251.5 Z"/></g>
<g><path style="opacity:1" fill="#5f5f5f" d="M 242.5,244.5 C 242.167,245.167 241.833,245.833 241.5,246.5C 238.813,246.664 236.146,246.497 233.5,246C 236.278,244.608 239.278,244.108 242.5,244.5 Z"/></g>
<g><path style="opacity:1" fill="#202b39" d="M 150.5,239.5 C 153.85,239.335 157.183,239.502 160.5,240C 162.429,242.438 164.762,244.272 167.5,245.5C 169.425,245.41 170.592,244.41 171,242.5C 171.783,246.894 169.949,249.561 165.5,250.5C 161.873,249.019 158.54,247.019 155.5,244.5C 153.31,246.524 150.977,248.357 148.5,250C 141.765,251.583 138.599,249.083 139,242.5C 139.329,246.04 141.162,247.206 144.5,246C 146.409,243.623 148.409,241.457 150.5,239.5 Z"/></g>
<g><path style="opacity:1" fill="#212121" d="M 271.5,248.5 C 270.636,249.688 269.636,250.855 268.5,252C 264.514,252.499 260.514,252.666 256.5,252.5C 256.504,250.158 257.337,248.158 259,246.5C 257.726,251.28 259.06,252.28 263,249.5C 265.473,243.221 268.473,237.221 272,231.5C 271.404,235.718 269.904,239.718 267.5,243.5C 268.53,243.554 269.697,243.888 271,244.5C 271.49,245.793 271.657,247.127 271.5,248.5 Z"/></g>
<g><path style="opacity:1" fill="#dddddd" d="M 267.5,245.5 C 269.811,246.961 269.811,248.794 267.5,251C 266.552,251.483 265.552,251.649 264.5,251.5C 264.615,249.053 265.615,247.053 267.5,245.5 Z"/></g>
<g><path style="opacity:1" fill="#1b1b1b" d="M 391.5,249.5 C 391.099,250.991 390.932,252.658 391,254.5C 390.329,255.252 389.496,255.586 388.5,255.5C 387.833,255.5 387.5,255.167 387.5,254.5C 387.833,254.5 388.167,254.5 388.5,254.5C 389.097,254.265 389.43,253.765 389.5,253C 387.838,251.901 387.172,250.734 387.5,249.5C 387.5,247.833 387.5,246.167 387.5,244.5C 392.041,244.331 392.374,244.998 388.5,246.5C 388.879,248.213 389.879,249.213 391.5,249.5 Z"/></g>
<g><path style="opacity:1" fill="#4f4f4f" d="M 391.5,249.5 C 392.527,248.152 393.86,247.652 395.5,248C 394.437,249.188 393.103,249.688 391.5,249.5 Z"/></g>
<g><path style="opacity:1" fill="#373737" d="M 271.5,248.5 C 273.213,246.15 275.547,245.15 278.5,245.5C 278.452,248.635 276.785,250.302 273.5,250.5C 277.642,252.073 280.642,250.74 282.5,246.5C 284.396,245.534 286.396,245.201 288.5,245.5C 288.587,248.598 288.087,248.932 287,246.5C 284.692,247.641 282.859,249.308 281.5,251.5C 278.607,253.314 275.607,253.647 272.5,252.5C 271.571,251.311 271.238,249.978 271.5,248.5 Z"/></g>
<g><path style="opacity:1" fill="#2d2d2d" d="M 378.5,247.5 C 377.175,248.953 376.342,248.619 376,246.5C 373.5,247.667 371.667,249.5 370.5,252C 365.203,251.68 359.87,252.18 354.5,253.5C 349.519,251.814 349.186,249.314 353.5,246C 354.793,245.51 356.127,245.343 357.5,245.5C 357.452,248.635 355.785,250.302 352.5,250.5C 353.333,250.833 354.167,251.167 355,251.5C 358.356,249.324 361.856,247.324 365.5,245.5C 366.167,245.667 366.833,245.833 367.5,246C 365.003,246.412 363.003,247.578 361.5,249.5C 361.833,249.833 362.167,250.167 362.5,250.5C 363.5,249.833 364.5,249.167 365.5,248.5C 366.167,249.5 366.833,250.5 367.5,251.5C 369.543,250.421 370.876,248.754 371.5,246.5C 372.667,246.167 373.833,245.833 375,245.5C 376.681,245.608 377.848,246.275 378.5,247.5 Z"/></g>
<g><path style="opacity:1" fill="#505050" d="M 387.5,249.5 C 387.172,250.734 387.838,251.901 389.5,253C 389.43,253.765 389.097,254.265 388.5,254.5C 388.053,252.027 387.053,251.86 385.5,254C 386.094,254.464 386.761,254.631 387.5,254.5C 387.5,255.167 387.833,255.5 388.5,255.5C 387.081,256.451 385.415,256.784 383.5,256.5C 383.737,255.209 383.404,254.209 382.5,253.5C 381.833,252.833 381.167,252.167 380.5,251.5C 383.108,251.6 385.442,250.933 387.5,249.5 Z"/></g>
<g><path style="opacity:1" fill="#646464" d="M 301.5,253.5 C 299.833,252.833 298.167,252.167 296.5,251.5C 301.21,251.393 305.877,251.226 310.5,251C 307.582,252.15 304.582,252.983 301.5,253.5 Z"/></g>
<g><path style="opacity:1" fill="#f3f3f3" d="M 388.5,254.5 C 388.167,254.5 387.833,254.5 387.5,254.5C 386.761,254.631 386.094,254.464 385.5,254C 387.053,251.86 388.053,252.027 388.5,254.5 Z"/></g>
<g><path style="opacity:1" fill="#5e5e5e" d="M 342.5,254.5 C 355.009,255.344 367.675,256.178 380.5,257C 367.504,257.5 354.504,257.667 341.5,257.5C 341.263,256.209 341.596,255.209 342.5,254.5 Z"/></g>
<g><path style="opacity:1" fill="#8f8f8f" d="M 234.5,259.5 C 235.558,258.4 236.392,257.066 237,255.5C 237.257,258.017 236.59,260.35 235,262.5C 234.517,261.552 234.351,260.552 234.5,259.5 Z"/></g>
<g><path style="opacity:1" fill="#1f2b3b" d="M 195.5,240.5 C 198.631,254.213 194.131,265.213 182,273.5C 180.942,277.288 182.442,279.288 186.5,279.5C 187.833,281.167 187.833,282.833 186.5,284.5C 180.957,283.062 175.624,281.062 170.5,278.5C 168.908,272.936 169.408,267.602 172,262.5C 175.401,259.365 178.067,255.698 180,251.5C 181.011,250.663 182.178,250.33 183.5,250.5C 183.233,253.875 182.233,257.042 180.5,260C 180.85,261.257 181.517,261.591 182.5,261C 187.414,256.607 190.247,251.107 191,244.5C 192.667,243.267 194.167,241.933 195.5,240.5 Z"/></g>
<g><path style="opacity:1" fill="#222b3b" d="M 118.5,258.5 C 127.263,262.047 135.929,265.88 144.5,270C 144.41,272.368 144.743,274.868 145.5,277.5C 148.996,276.94 150.663,274.94 150.5,271.5C 161.37,276.268 172.037,281.602 182.5,287.5C 180.956,289.446 178.956,289.946 176.5,289C 169.833,285.667 163.167,282.333 156.5,279C 152.947,278.402 149.614,279.069 146.5,281C 154.459,281.461 160.126,285.295 163.5,292.5C 156.256,292.716 150.256,289.882 145.5,284C 140.573,283.551 137.073,285.718 135,290.5C 134.667,296.167 134.333,301.833 134,307.5C 133.751,308.624 133.251,309.624 132.5,310.5C 131.194,309.088 130.36,307.421 130,305.5C 127.029,295.116 129.862,286.949 138.5,281C 132.083,279.972 125.916,278.138 120,275.5C 113.495,278.17 107.328,281.503 101.5,285.5C 99.9984,284.917 98.6651,284.084 97.5,283C 104.417,278.959 111.25,274.792 118,270.5C 118.499,266.514 118.666,262.514 118.5,258.5 Z"/></g>
<g><path style="opacity:1" fill="#e9eaea" d="M 122.5,264.5 C 128.104,266.758 133.771,268.925 139.5,271C 140.423,273.041 140.756,275.208 140.5,277.5C 134.577,276.582 128.91,274.748 123.5,272C 122.304,271.346 122.304,270.846 123.5,270.5C 124.768,271.428 126.101,271.595 127.5,271C 125.5,270 123.5,269 121.5,268C 122.5,267.667 123.5,267.333 124.5,267C 123.244,266.583 122.577,265.75 122.5,264.5 Z"/></g>
<g><path style="opacity:1" fill="#323232" d="M 236.5,280.5 C 237.161,281.718 237.828,283.051 238.5,284.5C 240.042,283.253 241.542,283.253 243,284.5C 243.667,287.167 243.667,289.833 243,292.5C 242.503,290.19 242.337,287.857 242.5,285.5C 241.167,285.5 239.833,285.5 238.5,285.5C 238.808,287.924 238.474,290.257 237.5,292.5C 236.509,288.555 236.176,284.555 236.5,280.5 Z"/></g>
<g><path style="opacity:1" fill="#5f5f5f" d="M 383.5,280.5 C 384.794,282.048 385.461,284.048 385.5,286.5C 385.167,288.5 384.833,290.5 384.5,292.5C 383.509,288.555 383.176,284.555 383.5,280.5 Z"/></g>
<g><path style="opacity:1" fill="#050505" d="M 226.5,282.5 C 230.967,281.138 232.633,281.138 231.5,282.5C 231.167,295.833 230.833,295.833 230.5,282.5C 229.167,282.5 227.833,282.5 226.5,282.5 Z"/></g>
<g><path style="opacity:1" fill="#494949" d="M 297.5,280.5 C 300.797,280.329 301.131,280.995 298.5,282.5C 298.833,283.167 299.167,283.833 299.5,284.5C 297.933,286.896 297.1,289.563 297,292.5C 296.238,288.413 296.404,284.413 297.5,280.5 Z"/></g>
<g><path style="opacity:1" fill="#656565" d="M 252.5,285.5 C 252.167,285.5 251.833,285.5 251.5,285.5C 250.167,285.5 248.833,285.5 247.5,285.5C 249.167,282.833 250.833,282.833 252.5,285.5 Z"/></g>
<g><path style="opacity:1" fill="#1a1a1a" d="M 324.5,282.5 C 325.477,285.287 325.81,288.287 325.5,291.5C 329.172,292.045 328.838,292.378 324.5,292.5C 324.172,289.018 324.172,285.685 324.5,282.5 Z"/></g>
<g><path style="opacity:1" fill="#6a6a6a" d="M 266.5,285.5 C 265.833,286.167 265.167,286.833 264.5,287.5C 263.77,285.955 262.437,285.122 260.5,285C 262.772,282.91 264.772,283.076 266.5,285.5 Z"/></g>
<g><path style="opacity:1" fill="#9d9d9d" d="M 270.5,284.5 C 269.527,286.948 269.194,289.615 269.5,292.5C 268.197,289.645 268.197,286.645 269.5,283.5C 270.107,283.624 270.44,283.957 270.5,284.5 Z"/></g>
<g><path style="opacity:1" fill="#434343" d="M 287.5,285.5 C 289.198,282.876 291.031,282.876 293,285.5C 294.404,292.543 292.071,294.21 286,290.5C 285.123,288.326 285.623,286.659 287.5,285.5 Z"/></g>
<g><path style="opacity:1" fill="#909090" d="M 307.5,284.5 C 309.338,283.322 311.005,283.655 312.5,285.5C 311.134,287.351 309.467,287.684 307.5,286.5C 308.55,285.571 308.55,284.905 307.5,284.5 Z"/></g>
<g><path style="opacity:1" fill="#686868" d="M 329.5,283.5 C 330.765,284.514 331.431,286.014 331.5,288C 331.167,289.5 330.833,291 330.5,292.5C 329.516,289.572 329.183,286.572 329.5,283.5 Z"/></g>
<g><path style="opacity:1" fill="#464646" d="M 336.5,283.5 C 337.822,283.33 338.989,283.663 340,284.5C 340.667,287.167 340.667,289.833 340,292.5C 339.503,290.19 339.337,287.857 339.5,285.5C 338.167,285.5 336.833,285.5 335.5,285.5C 335.808,287.924 335.474,290.257 334.5,292.5C 333.52,289.914 333.187,287.247 333.5,284.5C 334.791,284.737 335.791,284.404 336.5,283.5 Z"/></g>
<g><path style="opacity:1" fill="#070707" d="M 349.5,284.5 C 350.479,287.625 350.813,290.958 350.5,294.5C 349.833,293.5 349.167,292.5 348.5,291.5C 348.5,291.167 348.5,290.833 348.5,290.5C 349.461,288.735 349.795,286.735 349.5,284.5 Z"/></g>
<g><path style="opacity:1" fill="#424242" d="M 269.5,292.5 C 269.194,289.615 269.527,286.948 270.5,284.5C 272.47,283.838 274.47,283.172 276.5,282.5C 277.672,282.919 278.672,283.585 279.5,284.5C 276.895,287.089 276.895,289.589 279.5,292C 278.216,292.684 277.049,292.517 276,291.5C 275.505,289.527 275.338,287.527 275.5,285.5C 273.856,285.286 272.356,285.62 271,286.5C 270.809,288.708 270.309,290.708 269.5,292.5 Z"/></g>
<g><path style="opacity:1" fill="#f3f3f3" d="M 287.5,285.5 C 288.833,285.5 290.167,285.5 291.5,285.5C 291.5,287.5 291.5,289.5 291.5,291.5C 287.932,291.241 286.599,289.241 287.5,285.5 Z"/></g>
<g><path style="opacity:1" fill="#f4f4f4" d="M 348.5,290.5 C 348.5,290.833 348.5,291.167 348.5,291.5C 344.65,291.299 343.65,289.466 345.5,286C 346.448,285.517 347.448,285.351 348.5,285.5C 348.5,287.167 348.5,288.833 348.5,290.5 Z"/></g>
<g><path style="opacity:1" fill="#0d0d0d" d="M 266.5,285.5 C 266.663,287.857 266.497,290.19 266,292.5C 265.617,291.944 265.117,291.611 264.5,291.5C 265.567,289.121 264.567,288.121 261.5,288.5C 262.209,287.596 263.209,287.263 264.5,287.5C 265.167,286.833 265.833,286.167 266.5,285.5 Z"/></g>
<g><path style="opacity:1" fill="#212121" d="M 372.5,283.5 C 375.833,283.5 377.5,285.167 377.5,288.5C 369.979,288.574 369.646,289.741 376.5,292C 372.798,293.393 370.798,292.226 370.5,288.5C 370.437,286.486 371.103,284.819 372.5,283.5 Z"/></g>
<g><path style="opacity:1" fill="#ededed" d="M 372.5,285.5 C 373.675,285.281 374.675,285.614 375.5,286.5C 374.277,287.614 372.944,287.781 371.5,287C 372.056,286.617 372.389,286.117 372.5,285.5 Z"/></g>
<g><path style="opacity:1" fill="#0e0e0e" d="M 247.5,285.5 C 247.62,286.586 248.287,287.253 249.5,287.5C 250.713,287.253 251.38,286.586 251.5,285.5C 251.833,285.5 252.167,285.5 252.5,285.5C 252.5,286.5 252.5,287.5 252.5,288.5C 246.057,289.149 246.057,290.316 252.5,292C 246.746,292.987 245.08,290.82 247.5,285.5 Z"/></g>
<g><path style="opacity:1" fill="#e5e5e5" d="M 247.5,285.5 C 248.833,285.5 250.167,285.5 251.5,285.5C 251.38,286.586 250.713,287.253 249.5,287.5C 248.287,287.253 247.62,286.586 247.5,285.5 Z"/></g>
<g><path style="opacity:1" fill="#3b3b3b" d="M 316.5,283.5 C 318.39,283.297 319.89,283.963 321,285.5C 321.497,287.81 321.663,290.143 321.5,292.5C 319.208,292.756 317.041,292.423 315,291.5C 314.333,290.5 314.333,289.5 315,288.5C 320.406,287.283 320.573,286.116 315.5,285C 316.056,284.617 316.389,284.117 316.5,283.5 Z"/></g>
<g><path style="opacity:1" fill="#e2e2e2" d="M 261.5,288.5 C 264.567,288.121 265.567,289.121 264.5,291.5C 263.5,291.5 262.5,291.5 261.5,291.5C 261.5,290.5 261.5,289.5 261.5,288.5 Z"/></g>
<g><path style="opacity:1" fill="#2b2b2b" d="M 307.5,284.5 C 308.55,284.905 308.55,285.571 307.5,286.5C 309.467,287.684 311.134,287.351 312.5,285.5C 312.5,286.5 312.5,287.5 312.5,288.5C 306.057,289.149 306.057,290.316 312.5,292C 308.492,293.416 306.159,292.082 305.5,288C 305.387,286.301 306.053,285.134 307.5,284.5 Z"/></g>
<g><path style="opacity:1" fill="#f5f5f5" d="M 316.5,288.5 C 319.957,288.667 320.29,289.667 317.5,291.5C 316.614,290.675 316.281,289.675 316.5,288.5 Z"/></g>
<g><path style="opacity:1" fill="#3b3b3b" d="M 357.5,284.5 C 359.067,285.681 359.901,287.347 360,289.5C 361.774,283.035 363.774,283.035 366,289.5C 366.216,287.616 366.883,285.949 368,284.5C 368.395,287.597 367.562,290.264 365.5,292.5C 364.376,290.631 363.543,288.631 363,286.5C 359.889,294.334 358.055,293.667 357.5,284.5 Z"/></g>
<g><path style="opacity:1" fill="#2b2b2b" d="M 261.5,288.5 C 261.5,289.5 261.5,290.5 261.5,291.5C 262.5,291.5 263.5,291.5 264.5,291.5C 263.399,292.598 262.066,292.765 260.5,292C 259.015,290.244 259.348,289.077 261.5,288.5 Z"/></g>
<g><path style="opacity:1" fill="#2d3845" d="M 150.5,291.5 C 153.084,292.048 154.084,293.715 153.5,296.5C 148.516,296.856 147.516,295.189 150.5,291.5 Z"/></g>
<g><path style="opacity:1" fill="#242d3e" d="M 137.5,291.5 C 140.084,292.048 141.084,293.715 140.5,296.5C 139.167,296.5 137.833,296.5 136.5,296.5C 136.366,294.708 136.699,293.042 137.5,291.5 Z"/></g>
<g><path style="opacity:1" fill="#5b5b5b" d="M 349.5,284.5 C 349.795,286.735 349.461,288.735 348.5,290.5C 348.5,288.833 348.5,287.167 348.5,285.5C 347.448,285.351 346.448,285.517 345.5,286C 343.65,289.466 344.65,291.299 348.5,291.5C 349.167,292.5 349.833,293.5 350.5,294.5C 348.34,296.787 346.006,296.954 343.5,295C 349.85,294.256 350.016,293.089 344,291.5C 342.241,285.784 344.074,283.45 349.5,284.5 Z"/></g>
<g><path style="opacity:1" fill="#2f3746" d="M 150.5,306.5 C 153.084,307.048 154.084,308.715 153.5,311.5C 148.516,311.856 147.516,310.189 150.5,306.5 Z"/></g>
<g><path style="opacity:1" fill="#232e3b" d="M 137.5,306.5 C 140.084,307.048 141.084,308.715 140.5,311.5C 139.167,311.5 137.833,311.5 136.5,311.5C 136.366,309.708 136.699,308.042 137.5,306.5 Z"/></g>
</svg>
